<svg xmlns="http://www.w3.org/2000/svg" width="465" height="505" viewBox="180 228 465 505">

<defs>
  <linearGradient id="apBg" x1="0" y1="0" x2="0.6" y2="1"><stop offset="0" stop-color="#1d4353"></stop><stop offset="0.55" stop-color="#16303c"></stop><stop offset="1" stop-color="#0a1a22"></stop></linearGradient>
  <pattern id="apGrid" width="29" height="29" patternUnits="userSpaceOnUse"><path d="M29,0 V29 M0,29 H29" fill="none" stroke="#0f9a92" stroke-opacity="0.22" stroke-width="1"></path></pattern>
  <clipPath id="apClip"><path d="M180,274 L226,228 L599,228 L645,274 L645,687 L599,733 L226,733 L180,687 Z"></path></clipPath>
</defs>
<g clip-path="url(#apClip)">
  <rect x="180" y="228" width="465" height="505" fill="url(#apBg)"></rect><rect x="180" y="228" width="465" height="505" fill="url(#apGrid)"></rect>
  <g stroke="#0f9a92" stroke-opacity="0.4" stroke-width="1.5" fill="none"><path d="M180,228 L645,733 M645,228 L180,733"></path></g>
  <circle cx="412.5" cy="480.5" r="64" fill="none" stroke="#0f9a92" stroke-opacity="0.7" stroke-width="2"></circle><circle cx="412.5" cy="480.5" r="6" fill="#0f9a92" fill-opacity="0.85"></circle>
  <path d="M412.5,388.5 V438.5 M412.5,522.5 V572.5 M320.5,480.5 H370.5 M454.5,480.5 H504.5" stroke="#0f9a92" stroke-opacity="0.6" stroke-width="2"></path>
  <text x="412.5" y="624.5" text-anchor="middle" font-family="&#39;Chakra Petch&#39;,&#39;Barlow Condensed&#39;,system-ui,sans-serif" font-size="26" letter-spacing="8" fill="#0f9a92" fill-opacity="0.85">ART 465 × 505</text></g>
</svg>