<svg xmlns="http://www.w3.org/2000/svg" width="505" height="426" viewBox="160 428 505 426">

<defs>
  <linearGradient id="awRim" x1="0.1" y1="0" x2="0.9" y2="1"><stop offset="0" stop-color="#ffffff" stop-opacity="0.9"></stop><stop offset="0.5" stop-color="#cfe3ee" stop-opacity="0.66"></stop><stop offset="1" stop-color="#9fbfd2" stop-opacity="0.75"></stop></linearGradient>
  <filter id="awSh" x="-8%" y="-8%" width="116%" height="116%"><feDropShadow dx="0" dy="2" stdDeviation="5" flood-color="#0d2c3a" flood-opacity="0.32"></feDropShadow></filter>
</defs>
<g filter="url(#awSh)"><path d="M162,483.2 L215.2,430 L609.8,430 L663,483.2 L663,798.8 L609.8,852 L215.2,852 L162,798.8 Z M180,494 L226,448 L599,448 L645,494 L645,788 L599,834 L226,834 L180,788 Z" fill="url(#awRim)" fill-rule="evenodd"></path></g>
<path d="M162,483.2 L215.2,430 L609.8,430 L663,483.2 L663,798.8 L609.8,852 L215.2,852 L162,798.8 Z" fill="none" stroke="#2f4c60" stroke-opacity="0.5" stroke-width="2"></path>
<path d="M166,485.6 L217.6,434 L607.4,434 L659,485.6 L659,796.4 L607.4,848 L217.6,848 L166,796.4 Z" fill="none" stroke="#ffffff" stroke-opacity="0.85" stroke-width="1.6"></path>
<path d="M176,491.6 L223.6,444 L601.4,444 L649,491.6 L649,790.4 L601.4,838 L223.6,838 L176,790.4 Z" fill="none" stroke="#6b57c9" stroke-opacity="0.85" stroke-width="1.8"></path>
<path d="M180,494 L226,448 L599,448 L645,494 L645,788 L599,834 L226,834 L180,788 Z" fill="none" stroke="#2f4c60" stroke-opacity="0.65" stroke-width="2.4"></path>
<g fill="none" stroke="#6b57c9" stroke-width="3" stroke-opacity="0.9" stroke-linecap="square">
    <path d="M196,492 L224,464"></path><path d="M629,492 L601,464"></path>
    <path d="M196,790 L224,818"></path><path d="M629,790 L601,818"></path></g>
</svg>