<svg xmlns="http://www.w3.org/2000/svg" width="233" height="82" viewBox="296 968 233 82">

<defs>
  <linearGradient id="tbFill" x1="0" y1="0" x2="0.3" y2="1"><stop offset="0" stop-color="#ffffff" stop-opacity="0.9"></stop><stop offset="0.5" stop-color="#e8f3f9" stop-opacity="0.7"></stop><stop offset="1" stop-color="#bcd5e3" stop-opacity="0.66"></stop></linearGradient>
  <filter id="tbSh" x="-12%" y="-18%" width="124%" height="136%"><feDropShadow dx="0" dy="3" stdDeviation="4.5" flood-color="#0d2c3a" flood-opacity="0.28"></feDropShadow></filter></defs>
<g filter="url(#tbSh)"><path d="M306,990 L318,978 L507,978 L519,990 L519,1028 L507,1040 L318,1040 L306,1028 Z" fill="url(#tbFill)"></path></g>
<path d="M306,990 L318,978 L507,978 L519,990 L519,1028 L507,1040 L318,1040 L306,1028 Z" fill="none" stroke="#2f4c60" stroke-opacity="0.6" stroke-width="2"></path>
<path d="M310,991 L319,982 L504,982 L513.33,990.99 L514.67,1027.01 L506,1036 L319,1036 L310,1027 Z" fill="none" stroke="#ffffff" stroke-opacity="0.9" stroke-width="1.3"></path>
<rect x="306" y="978" width="7" height="62" fill="#6b57c9" fill-opacity="0.9"></rect>
<path d="M320,1037 H495" stroke="#6b57c9" stroke-width="2.2" stroke-opacity="0.85"></path>

<text x="406.5" y="1017" text-anchor="middle" font-family="&#39;Chakra Petch&#39;,&#39;Barlow Condensed&#39;,system-ui,sans-serif" font-weight="700" font-size="22" letter-spacing="2.5" fill="#6b57c9">NO ENTROPY</text>
</svg>